<svg width="433" height="436" viewBox="0 0 433 436" fill="none" xmlns="http://www.w3.org/2000/svg">
<path d="M273.111 53.3436L424.269 316.973C429.813 326.641 433 337.849 433 349.814C433 386.15 403.745 415.609 367.658 415.609H216.5L164.226 218L216.5 20.3915C240.704 20.3915 261.819 33.6529 273.111 53.3436Z" fill="#1ED760"/>
<path d="M159.889 53.3436L8.73019 316.973C3.18746 326.641 0 337.849 0 349.814C0 386.15 29.2546 415.609 65.3424 415.609H216.5V20.3915C192.296 20.3915 171.181 33.6529 159.889 53.3436Z" fill="#1ED760"/>
<path d="M401.635 330.132L250.478 66.5053C243.665 54.6184 231.154 47.1178 217.624 46.7321L346.906 389.294H367.658C389.274 389.294 406.864 371.584 406.864 349.818C406.864 342.905 405.051 336.097 401.635 330.132Z" fill="#191414"/>
<path d="M376.214 330.132C379.167 336.097 380.726 342.905 380.726 349.818C380.726 371.583 365.558 389.294 346.905 389.294H65.3424C43.727 389.294 26.1373 371.583 26.1373 349.818C26.1373 342.905 27.9496 336.097 31.3646 330.132L182.522 66.5053C189.527 54.2939 202.543 46.7057 216.5 46.7057C216.875 46.7057 217.249 46.7142 217.624 46.7321C229.237 47.1885 239.962 54.6712 245.808 66.5053L376.214 330.132Z" fill="#191414"/>
<path d="M216.5 301.565V345.428C228.532 345.428 238.281 335.611 238.281 323.496C238.281 311.382 228.532 301.565 216.5 301.565Z" fill="#1ED760"/>
<path d="M216.5 301.565C218.904 301.565 220.856 311.381 220.856 323.497C220.856 335.612 218.904 345.429 216.5 345.429C204.468 345.429 194.719 335.612 194.719 323.497C194.719 311.381 204.468 301.565 216.5 301.565Z" fill="#1ED760"/>
<path d="M216.5 112.956V275.251C228.532 275.251 238.281 265.425 238.281 253.319V134.888C238.281 122.773 228.532 112.956 216.5 112.956Z" fill="#1ED760"/>
<path d="M237.781 253.319C237.781 264.984 228.521 274.477 217 274.745V113.462C228.521 113.73 237.781 123.214 237.781 134.888V253.319Z" stroke="#1ED760"/>
<path d="M216.5 112.956C218.904 112.956 220.856 122.773 220.856 134.888V253.319C220.856 265.424 218.904 275.251 216.5 275.251C204.468 275.251 194.719 265.425 194.719 253.319V134.888C194.719 122.773 204.468 112.956 216.5 112.956Z" fill="#1ED760"/>
</svg>
